<svg width="180" height="180" version="1.1" xmlns="http://www.w3.org/2000/svg">
    <path fill="rgb(221,226,232)" stroke="rgb(221,226,232)" stroke-width="1" opacity="1"
          d="M 112 54 L 119.5 54 L 120 54.5 L 120 102.5 L 122 110.5 L 127.5 116 L 135.5 118 L 145 114 L 148 108.5 L 148 55.5 L 149.5 54 L 156.5 54 L 157 54.5 L 157 108.5 Q 154.3 118.3 146.5 123 L 137.5 126 L 131.5 126 L 120.5 122 L 116 117.5 L 112 109.5 L 112 54 Z "/>
    <path fill="rgb(221,226,232)" stroke="rgb(221,226,232)" stroke-width="1" opacity="1"
          d="M 41.5 77 L 50.5 77 L 60 83.5 L 60.5 85 Q 66 75.5 82.5 77 Q 89.3 79.3 93 84.5 L 97 95.5 L 97 123.5 L 95.5 125 L 88 125 L 88 94.5 L 83.5 87 Q 80.2 84.3 73.5 85 L 67 88.5 L 64 94.5 L 64 125 L 56.5 125 L 56 124.5 L 56 97.5 L 54 90.5 L 50.5 87 Q 47.5 84 40.5 85 L 33 90.5 L 32 92.5 L 32 123.5 L 30.5 125 L 23.5 125 L 23 124.5 L 23 78 L 31 78 L 31 83.5 L 32 83.5 Q 31.3 81.3 33.5 82 L 41.5 77 Z "/>
    <path fill="rgb(0,33,84)" stroke="rgb(0,33,84)" stroke-width="1" opacity="0.9882352941176471"
          d="M 0 0 L 18 0.5 Q 7.9 0.9 4 7.5 Q 0.6 11.1 0.5 18 L 0 0 Z "/>
    <path fill="rgb(0,33,84)" stroke="rgb(0,33,84)" stroke-width="1" opacity="0.9882352941176471"
          d="M 162.5 0 L 180 0 L 180 17.5 L 179 17.5 Q 179.1 7.4 172.5 4 Q 169.7 0.3 162.5 1 L 162.5 0 Z "/>
    <path fill="rgb(0,33,84)" stroke="rgb(0,33,84)" stroke-width="1" opacity="0.9882352941176471"
          d="M 0.5 162 Q 0.9 172.1 7.5 176 Q 11.1 179.4 18 179.5 L 0 180 L 0.5 162 Z "/>
    <path fill="rgb(0,33,84)" stroke="rgb(0,33,84)" stroke-width="1" opacity="0.9882352941176471"
          d="M 179.5 162 L 180 180 L 162 179.5 Q 172.1 179.1 176 172.5 Q 179.4 168.9 179.5 162 Z "/>
    <path fill="rgb(0,34,85)" stroke="rgb(0,34,85)" stroke-width="1" opacity="1"
          d="M 18.5 0 L 161.5 0 L 169.5 2 L 176 7.5 L 180 18.5 L 180 161.5 L 178 169.5 L 172.5 176 L 161.5 180 L 18.5 180 L 10.5 178 L 4 172.5 L 0 161.5 L 0 18.5 L 2 10.5 L 7.5 4 L 18.5 0 Z M 112 54 L 112 110 L 116 118 L 121 122 L 132 126 L 138 126 L 147 123 Q 154 118 157 109 L 157 55 L 157 54 L 150 54 L 148 56 L 148 109 L 145 114 L 136 118 L 128 116 L 122 111 L 120 103 L 120 55 L 120 54 L 112 54 Z M 42 77 L 34 82 Q 31 81 32 84 L 31 84 L 31 78 L 23 78 L 23 125 L 24 125 L 31 125 L 32 124 L 32 93 L 33 91 L 41 85 Q 48 84 51 87 L 54 91 L 56 98 L 56 125 L 57 125 L 64 125 L 64 95 L 67 89 L 74 85 Q 80 84 84 87 L 88 95 L 88 125 L 96 125 L 97 124 L 97 96 L 93 85 Q 89 79 83 77 Q 66 76 61 85 L 60 84 L 51 77 L 42 77 Z "/>
</svg>
